<svg id="Capa_1" data-name="Capa 1" xmlns="http://www.w3.org/2000/svg" width="155.93mm" height="139.63mm" viewBox="0 0 442 395.81"><defs><style>.cls-1{fill:#e40526;}</style></defs><title>funds</title><path class="cls-1" d="M337.9,166.38c0-.08,0-.16,0-.25a9.86,9.86,0,0,0-.24-1.21h0a10,10,0,0,0-.38-1.1l-.13-.31c-.12-.26-.24-.52-.39-.77l-.19-.33-.1-.18c-.15-.24-.31-.46-.47-.68l-.09-.12a9.72,9.72,0,0,0-.8-.91l-.17-.16a10.08,10.08,0,0,0-.77-.67l-.2-.16a10.14,10.14,0,0,0-1.11-.72L185.51,75.07l84.82-53.41,142.21,80.83L352.65,140.2a10,10,0,1,0,10.66,16.92l74-46.61a10,10,0,0,0-.39-17.16L275,1.31a10,10,0,0,0-10.27.23L160.78,67l-.06,0L108.77,99.75l-.07,0L4.67,165.3a10,10,0,0,0,.39,17.16L167,274.5a10,10,0,0,0,10.27-.23l74-46.61a10,10,0,0,0-10.66-16.92l-69,43.42L29.47,173.32l84.83-53.41L266,206.12V320.3a10,10,0,0,0,15.33,8.46l52-32.75a10,10,0,0,0,4.67-8.46v-120c0-.06,0-.12,0-.17Q338,166.88,337.9,166.38ZM286,302.19V200.3a10,10,0,0,0-5.06-8.69L133.49,107.82l32.81-20.66L308.51,168l-12.45,7.84a10,10,0,1,0,10.66,16.92L318,185.66V282Z"/><path class="cls-1" d="M426.67,133.58l-74,46.61a10,10,0,1,0,10.66,16.92l74-46.61a10,10,0,0,0-10.66-16.92Z"/><path class="cls-1" d="M240.63,250.73l-69,43.42L14.94,205.07a10,10,0,1,0-9.88,17.39L167,314.5a10,10,0,0,0,10.27-.23l74-46.61a10,10,0,0,0-10.66-16.93Z"/><path class="cls-1" d="M426.67,173.58l-74,46.61a10,10,0,1,0,10.66,16.92l74-46.61a10,10,0,0,0-10.66-16.92Z"/><path class="cls-1" d="M240.63,290.73l-69,43.42L14.94,245.07a10,10,0,0,0-9.88,17.39L167,354.5a10,10,0,0,0,10.27-.23l74-46.61a10,10,0,0,0-10.66-16.93Z"/><path class="cls-1" d="M426.67,213.58l-74,46.61a10,10,0,1,0,10.66,16.92l74-46.61a10,10,0,0,0-10.66-16.92Z"/><path class="cls-1" d="M240.63,330.73l-69,43.42L14.94,285.07a10,10,0,0,0-9.88,17.39L167,394.5a10,10,0,0,0,10.27-.23l74-46.61a10,10,0,0,0-10.66-16.93Z"/></svg>