<svg id="Capa_1" data-name="Capa 1" xmlns="http://www.w3.org/2000/svg" width="46.36mm" height="35.85mm" viewBox="0 0 131.41 101.62"><defs><style>.cls-1{fill:#e40526;}</style></defs><title>measuring-tape-outline</title><path class="cls-1" d="M47.31,26.28A24.53,24.53,0,1,0,71.84,50.81,24.56,24.56,0,0,0,47.31,26.28Zm0,42.05A17.52,17.52,0,1,1,64.83,50.81,17.54,17.54,0,0,1,47.31,68.33Z"/><path class="cls-1" d="M127.91,101.62a3.5,3.5,0,0,0,3.5-3.5v-11a3.5,3.5,0,0,0-3.5-3.5H94.61V47.31A47,47,0,0,0,85.85,20V8.88a3.5,3.5,0,0,0-3.5-3.5H69.13A47.24,47.24,0,0,0,0,47.31V98.12a3.5,3.5,0,0,0,3.5,3.5H91.11a3.5,3.5,0,0,0,3.5-3.5V90.67H124.4v7.45A3.5,3.5,0,0,0,127.91,101.62Zm-40.3-7H7V47.31a40.3,40.3,0,0,1,80.6,0Z"/></svg>