<svg id="Capa_1" data-name="Capa 1" xmlns="http://www.w3.org/2000/svg" width="22.26mm" height="22.23mm" viewBox="0 0 63.09 63"><defs><style>.cls-1{fill:#e40526;}</style></defs><title>driller</title><g id="group-16svg"><path id="path-1" class="cls-1" d="M43.16,63a1.49,1.49,0,0,1-.76-.21L28.25,54.53a1.5,1.5,0,0,1-.56-2l1.78-3.31a1.5,1.5,0,0,1,2-.6l1.72.95,8.91-15.19-13-6.3a12.3,12.3,0,0,1-5.29-17.21l.05-.09A12.29,12.29,0,0,1,40.14,6.06l16.26,8.35a12.3,12.3,0,0,1,5.14,16.92L44.47,62.23a1.5,1.5,0,0,1-1.31.77ZM31,52.67l11.58,6.76L58.91,29.87A9.3,9.3,0,0,0,55,17.08L38.77,8.73a9.2,9.2,0,0,0-4.24-1,9.33,9.33,0,0,0-8.06,4.66l-.05.09a9.31,9.31,0,0,0,4.05,12.93l14.45,7a1.5,1.5,0,0,1,.64,2.11L35.08,52.34a1.5,1.5,0,0,1-2,.56L31.39,52Z"/><path id="path-2" class="cls-1" d="M22.6,16.69a1.48,1.48,0,0,1-.7-.17,6,6,0,1,1,5.63-10.7,1.5,1.5,0,0,1-1.4,2.65,3,3,0,0,0-2.84,5.39,1.5,1.5,0,0,1-.7,2.83Z"/><path id="path-3" class="cls-1" d="M18.65,13.85a1.5,1.5,0,0,1-.7-.17,5.28,5.28,0,0,1,4.92-9.34A1.5,1.5,0,0,1,21.47,7a2.28,2.28,0,0,0-2.12,4,1.5,1.5,0,0,1-.7,2.83Z"/><path id="path-4" class="cls-1" d="M17.07,8.75a1.48,1.48,0,0,1-.66-.15L4.63,2.85A1.5,1.5,0,0,1,5.94.15L17.72,5.9a1.5,1.5,0,0,1-.66,2.85Z"/><path id="path-5" class="cls-1" d="M38.57,43.93a1.5,1.5,0,0,1-.59-.12c-6.29-2.68-9.62-5.81-9.9-9.3-.35-4.35,4.18-7.25,4.38-7.37a1.5,1.5,0,0,1,1.6,2.54h0c-.89.57-3.16,2.5-3,4.61s3.06,4.63,8.08,6.77a1.5,1.5,0,0,1-.59,2.88Z"/><path id="path-6" class="cls-1" d="M46,18.27a1.5,1.5,0,0,1-.72-.18L35,12.44a1.5,1.5,0,0,1,1.45-2.63l10.28,5.65A1.5,1.5,0,0,1,46,18.27Z"/><path id="path-7" class="cls-1" d="M42.75,22.83a1.5,1.5,0,0,1-.72-.19L31.75,17a1.5,1.5,0,1,1,1.45-2.63L43.48,20a1.5,1.5,0,0,1-.72,2.82Z"/><path id="path-8" class="cls-1" d="M39.33,27.38a1.49,1.49,0,0,1-.72-.19L28.33,21.55a1.5,1.5,0,0,1,1.45-2.63L40,24.57a1.5,1.5,0,0,1-.72,2.82Z"/><path id="path-9" class="cls-1" d="M28.7,62.63a49.18,49.18,0,0,1-12-1.91C4.57,57.53,3,59.15,3,59.17a3.52,3.52,0,0,0,.23.46A1.5,1.5,0,0,1,.78,61.39a3.5,3.5,0,0,1-.28-3.92c1.11-1.62,4-3.05,17,.35,11.83,3.11,15.29,1.47,16.23.63a1.47,1.47,0,0,0,.56-1.06,1.5,1.5,0,1,1,3-.46,4.33,4.33,0,0,1-1.51,3.75C34.25,62,31.91,62.63,28.7,62.63Z"/></g></svg>