<svg id="Слой_1" data-name="Слой 1" xmlns="http://www.w3.org/2000/svg" width="84.72mm" height="79.39mm" viewBox="0 0 240.16 225.03"><defs><style>.cls-1{fill:#e40526;}</style></defs><title>contract</title><path class="cls-1" d="M39.82,64.93h97.65a7,7,0,0,0,0-14H39.82a7,7,0,0,0,0,14Z"/><path class="cls-1" d="M39.82,89h97.65a7,7,0,0,0,0-14H39.82a7,7,0,0,0,0,14Z"/><path class="cls-1" d="M91.48,171.17H39.82a7,7,0,0,0,0,14H91.48a7,7,0,0,0,0-14Z"/><path class="cls-1" d="M236.76,13.35,216.18,1a7,7,0,0,0-9.6,2.4L170.75,63.11V20.79a7,7,0,0,0-7-7H7a7,7,0,0,0-7,7V218a7,7,0,0,0,7,7H163.75a7,7,0,0,0,7-7V137L239.16,23a7,7,0,0,0-2.4-9.6Zm-90.4,137.06-11.62,9.64,3-14.79L204.94,33.35l8.57,5.15L146.36,150.41ZM220.72,26.49l-8.57-5.15L215,16.6l8.57,5.15ZM14,211V27.79H156.75V86.45L144.39,107a7,7,0,0,0-6.92-8H39.82a7,7,0,1,0,0,14h97.65a7,7,0,0,0,4.16-1.38l-6.86,11.43h-95a7,7,0,0,0,0,14h86.55l-1.2,2a7,7,0,0,0-.85,2.19l-1.2,5.85H39.82a7,7,0,0,0,0,14h80.41L117,176.76a7,7,0,0,0,11.33,6.8l27.88-23.14a7.24,7.24,0,0,0,.53-.52V211H14Z"/></svg>