<svg id="Слой_1" data-name="Слой 1" xmlns="http://www.w3.org/2000/svg" width="149.19mm" height="172.72mm" viewBox="0 0 422.9 489.6"><defs><style>.cls-1{fill:#e40526;}</style></defs><title>certificate</title><path class="cls-1" d="M371,297.5c27.1-22.3,43.6-55.5,43.6-91.3,0-30.9-11.3-58.9-30.2-79.7V10.4C384.4,4.1,380.2,0,374,0H10.4C4.1,0,0,4.2,0,10.4V479.2c0,6.3,4.2,10.4,10.4,10.4H373.9a10.45,10.45,0,0,0,10.4-10.4V420.6l38.6-13.3Zm23.8-91.3c-.1,38.6-21.9,73-56.3,88.6a104.79,104.79,0,0,1-40.6,8.3c-53.1,0-96.9-43.8-96.9-96.9s43.8-96.9,96.9-96.9,95.8,42.7,96.9,96.9ZM258.5,316.3l-21.1,93-40.6-14.5L239,307.5A114.05,114.05,0,0,0,258.5,316.3Zm105,152.5H20.8V20.8H363.5v87.6A118.11,118.11,0,0,0,226,112.9v-.5H87.4v20.8h118a117.71,117.71,0,0,0-21.9,101H87.4V255H190.8a116.61,116.61,0,0,0,30.7,40.2l-28.8,60.9H87.4v20.8h95.5l-14.3,30.2L253,436.3l26.3-115a124.87,124.87,0,0,0,18.5,1.4,140.9,140.9,0,0,0,14.5-.8l26.2,114.3,25-8.6v41.2Zm-9.4-59.4L333.4,318c4.3-1.2,17.6-7,20.2-8.5l41.1,85.3Z"/><path class="cls-1" d="M272.8,170.9l-54.2,8.3,39.6,38.5-9.4,54.2,49-24,47.9,25-9.3-54.1,38.5-39.6-54.2-8.3-23.9-49-24,49Zm35.4,19.8,22.9,3.1-16.7,16.7,4.3,22.8-20.8-10.4-20.8,11.5,4.2-24-16.8-16.6,22.9-3.1,10.4-20.8Z"/></svg>