<svg id="Capa_1" data-name="Capa 1" xmlns="http://www.w3.org/2000/svg" width="110mm" height="123.83mm" viewBox="0 0 311.81 351"><defs><style>.cls-1{fill:#e40526;}</style></defs><title>wrench</title><path class="cls-1" d="M304.31,213.94a7.5,7.5,0,0,0-7.5,7.5v93.12H234.89v-115h0v-14.4h69.41a7.5,7.5,0,0,0,0-15H227.39a7.5,7.5,0,0,0-7.5,7.5v3.8l-47.76-47.76a25.54,25.54,0,0,0-27-5.85A79.31,79.31,0,0,0,128.12.92,7.5,7.5,0,0,0,117,7.5V74.26H63.29V7.5A7.5,7.5,0,0,0,52.2.91,79.32,79.32,0,0,0,39.06,131.34v19.54H25.51A25.54,25.54,0,0,0,0,176.38v.36a25.43,25.43,0,0,0,7.46,18,25.43,25.43,0,0,0-7.46,18v.36a25.43,25.43,0,0,0,7.46,18,25.43,25.43,0,0,0-7.46,18v.36a25.43,25.43,0,0,0,7.46,18,25.43,25.43,0,0,0-7.46,18v.36A25.54,25.54,0,0,0,25.51,311.4H40.27A50.76,50.76,0,0,0,89.72,351h.87A50.74,50.74,0,0,0,140,311.4H199.9a7.5,7.5,0,0,0,0-15H141.26V234.5a7.5,7.5,0,1,0-15,0v65.84A35.7,35.7,0,0,1,90.6,336h-.87A35.74,35.74,0,0,1,55.81,311.4H67.61a25.54,25.54,0,0,0,25.51-25.51v-.36a25.43,25.43,0,0,0-7.46-18,25.43,25.43,0,0,0,7.46-18v-.36a25.43,25.43,0,0,0-7.46-18,25.43,25.43,0,0,0,7.46-18v-.36a25.43,25.43,0,0,0-7.46-18,25.43,25.43,0,0,0,7.46-18v-.36a25.54,25.54,0,0,0-25.51-25.51H54.06V127.74a7.5,7.5,0,0,0-2.94-6A64.3,64.3,0,0,1,48.29,21.73v60a7.5,7.5,0,0,0,7.5,7.5h68.74a7.5,7.5,0,0,0,7.5-7.5v-60a64.3,64.3,0,0,1-2.83,100.05,7.5,7.5,0,0,0-2.94,6v15.73l-20,20a25.51,25.51,0,0,0,0,36.07l.26.26a25.54,25.54,0,0,0,36.07,0l14.93-14.93a7.5,7.5,0,0,0-10.6-10.61L132,189.17a10.52,10.52,0,0,1-14.86,0l-.26-.26a10.51,10.51,0,0,1,0-14.86l29.77-29.77a10.51,10.51,0,0,1,14.85,0h0l58.37,58.37V322.06a7.5,7.5,0,0,0,7.5,7.5h76.91a7.5,7.5,0,0,0,7.5-7.5V221.44A7.5,7.5,0,0,0,304.31,213.94ZM78.12,212.76v.36a10.52,10.52,0,0,1-10.51,10.51H25.51A10.52,10.52,0,0,1,15,213.13v-.36a10.52,10.52,0,0,1,10.51-10.51h42.1A10.52,10.52,0,0,1,78.12,212.76Zm0,36.38v.36A10.52,10.52,0,0,1,67.61,260H25.51A10.52,10.52,0,0,1,15,249.51v-.36a10.52,10.52,0,0,1,10.51-10.51h42.1A10.52,10.52,0,0,1,78.12,249.14Zm0,36.74A10.52,10.52,0,0,1,67.61,296.4H25.51A10.52,10.52,0,0,1,15,285.89v-.36A10.52,10.52,0,0,1,25.51,275h42.1a10.52,10.52,0,0,1,10.51,10.51v.36Zm0-109.5v.36a10.52,10.52,0,0,1-10.51,10.51H25.51A10.52,10.52,0,0,1,15,176.75v-.36a10.52,10.52,0,0,1,10.51-10.51h42.1A10.52,10.52,0,0,1,78.12,176.38Z"/></svg>