<svg id="Слой_1" data-name="Слой 1" xmlns="http://www.w3.org/2000/svg" width="86.53mm" height="81.52mm" viewBox="0 0 245.29 231.07"><defs><style>.cls-1{fill:#e40526;}</style></defs><title>flat</title><path class="cls-1" d="M54,140.28a7,7,0,0,0-7,7v12.15a7,7,0,0,0,14,0V147.28A7,7,0,0,0,54,140.28Z"/><path class="cls-1" d="M82,140.28a7,7,0,0,0-7,7v12.15a7,7,0,0,0,14,0V147.28A7,7,0,0,0,82,140.28Z"/><path class="cls-1" d="M110,140.28a7,7,0,0,0-7,7v12.15a7,7,0,0,0,14,0V147.28A7,7,0,0,0,110,140.28Z"/><path class="cls-1" d="M135.26,140.28a7,7,0,0,0-7,7v12.15a7,7,0,0,0,14,0V147.28A7,7,0,0,0,135.26,140.28Z"/><path class="cls-1" d="M163.26,140.28a7,7,0,0,0-7,7v12.15a7,7,0,0,0,14,0V147.28A7,7,0,0,0,163.26,140.28Z"/><path class="cls-1" d="M191.26,140.28a7,7,0,0,0-7,7v12.15a7,7,0,0,0,14,0V147.28A7,7,0,0,0,191.26,140.28Z"/><path class="cls-1" d="M54,101.21a7,7,0,0,0-7,7v12.15a7,7,0,0,0,14,0V108.2A7,7,0,0,0,54,101.21Z"/><path class="cls-1" d="M82,101.21a7,7,0,0,0-7,7v12.15a7,7,0,0,0,14,0V108.2A7,7,0,0,0,82,101.21Z"/><path class="cls-1" d="M110,101.21a7,7,0,0,0-7,7v12.15a7,7,0,0,0,14,0V108.2A7,7,0,0,0,110,101.21Z"/><path class="cls-1" d="M135.26,101.21a7,7,0,0,0-7,7v12.15a7,7,0,0,0,14,0V108.2A7,7,0,0,0,135.26,101.21Z"/><path class="cls-1" d="M163.26,101.21a7,7,0,0,0-7,7v12.15a7,7,0,0,0,14,0V108.2A7,7,0,0,0,163.26,101.21Z"/><path class="cls-1" d="M191.26,101.21a7,7,0,0,0-7,7v12.15a7,7,0,0,0,14,0V108.2A7,7,0,0,0,191.26,101.21Z"/><path class="cls-1" d="M94.64,29.7a7,7,0,0,0-7,7V48.86a7,7,0,0,0,14,0V36.7A7,7,0,0,0,94.64,29.7Z"/><path class="cls-1" d="M122.64,29.7a7,7,0,0,0-7,7V48.86a7,7,0,0,0,14,0V36.7A7,7,0,0,0,122.64,29.7Z"/><path class="cls-1" d="M150.65,29.7a7,7,0,0,0-7,7V48.86a7,7,0,0,0,14,0V36.7A7,7,0,0,0,150.65,29.7Z"/><path class="cls-1" d="M238.29,67.17H186.45V7a7,7,0,0,0-7-7H65.84a7,7,0,0,0-7,7V67.17H7a7,7,0,0,0,0,14h6.58v142.9a7,7,0,0,0,7,7H224.71a7,7,0,0,0,7-7V81.17h6.58a7,7,0,1,0,0-14Zm-81.15,149.9H129.6a7.13,7.13,0,0,0,0-.79V205.76h27.49v11.31Zm-41.45,0H88.15V205.76h27.49v10.52a7.4,7.4,0,0,0,0,.79Zm55.45,0V198.76a7,7,0,0,0-7-7h-83a7,7,0,0,0-7,7v18.31H27.58V81.17H217.71v135.9ZM72.84,14h99.61V67.17H72.84Z"/></svg>