<svg id="Слой_1" data-name="Слой 1" xmlns="http://www.w3.org/2000/svg" viewBox="0 0 100 138"><defs><style>.cls-1{fill:#e40526;}.cls-2{fill:#fff;}</style></defs><title>logo</title><rect class="cls-1" width="100" height="138"/><path class="cls-2" d="M43.39,102.41H40.14a5.58,5.58,0,1,1,0-11.16h3.25Zm-3.25-9.57a4,4,0,0,0,0,8h1.66v-8Z"/><rect class="cls-2" x="42.59" y="94.44" width="5.05" height="1.59"/><rect class="cls-2" x="42.59" y="98.16" width="5.05" height="1.59"/><polygon class="cls-2" points="69.37 97.9 50.77 97.9 50.77 96.3 67.77 96.3 67.77 74.51 79.42 74.51 48.63 43.22 17.08 74.78 28.71 74.78 28.71 96.04 35.35 96.04 35.35 97.63 27.11 97.63 27.11 76.37 13.23 76.37 48.64 40.96 83.23 76.1 69.37 76.1 69.37 97.9"/><path class="cls-2" d="M61.8,70.05h-26V60.62h26ZM38.24,67.61H59.35V63.06H38.24Z"/><rect class="cls-2" x="50" y="74" width="2" height="24"/><rect class="cls-2" x="64" y="65" width="2" height="11"/><rect class="cls-2" x="50" y="74" width="16" height="2"/><rect class="cls-2" x="61" y="65" width="5" height="2"/><path class="cls-2" d="M12.09,110.28a6.71,6.71,0,0,1,1.54.17,3.64,3.64,0,0,1,1.27.55,2.83,2.83,0,0,1,.86,1,2.94,2.94,0,0,1,.32,1.42,2.75,2.75,0,0,1-.28,1.24,2.2,2.2,0,0,1-.91.92v.07a3.23,3.23,0,0,1,2,3,2.92,2.92,0,0,1-.34,1.43,3.25,3.25,0,0,1-.91,1,4.07,4.07,0,0,1-1.33.64,5.67,5.67,0,0,1-1.57.22H8V110.28ZM9.7,120.61h2.9a4.86,4.86,0,0,0,1-.1,2.43,2.43,0,0,0,.84-.33,1.75,1.75,0,0,0,.58-.61,1.86,1.86,0,0,0,.22-.94,1.91,1.91,0,0,0-.68-1.61,2.82,2.82,0,0,0-1.78-.53h-3Zm0-5.45h2.65a2.25,2.25,0,0,0,1.52-.46,1.55,1.55,0,0,0,.53-1.23,1.59,1.59,0,0,0-.58-1.36,2.5,2.5,0,0,0-1.55-.44H9.71Z"/><path class="cls-2" d="M24.6,110.3l5,11.7H27.82l-1.53-3.55H20.91L19.45,122H17.69l5-11.7ZM21.47,117h4.28L23.7,112h-.16Z"/><path class="cls-2" d="M31.19,110.3H32.9v10.31h4.55V110.3h1.71v10.31h4.55V110.3h1.71V122H31.19Z"/><path class="cls-2" d="M63.08,110.3v10.3h1.26l-.14,3.94H62.87L62.65,122H53.92l-.27,2.54H52.28v-3.91a4.25,4.25,0,0,0,.57-.2,1.53,1.53,0,0,0,.5-.32,3.6,3.6,0,0,0,.76-1,6.61,6.61,0,0,0,.52-1.41,12.35,12.35,0,0,0,.3-1.71A18.06,18.06,0,0,0,55,114V110.3Zm-6.41,1.39v2.16a16.85,16.85,0,0,1-.45,4.1,5.43,5.43,0,0,1-1.35,2.65h6.52v-8.91Z"/><path class="cls-2" d="M78,116.15a6.12,6.12,0,0,1-.49,2.47,5.82,5.82,0,0,1-1.34,1.93,6,6,0,0,1-2,1.25,7.11,7.11,0,0,1-4.93,0,6,6,0,0,1-2-1.25,5.83,5.83,0,0,1-1.34-1.93,6.52,6.52,0,0,1,0-4.93,5.83,5.83,0,0,1,1.34-1.93,6,6,0,0,1,2-1.25,7.13,7.13,0,0,1,4.93,0,6,6,0,0,1,2,1.25,5.82,5.82,0,0,1,1.34,1.93A6.12,6.12,0,0,1,78,116.15Zm-10.87,0a5,5,0,0,0,.37,2,4.35,4.35,0,0,0,1,1.46,4.27,4.27,0,0,0,1.45.91,5.11,5.11,0,0,0,3.54,0,4.26,4.26,0,0,0,1.45-.91,4.36,4.36,0,0,0,1-1.46,5.49,5.49,0,0,0,0-4,4.35,4.35,0,0,0-1-1.46,4.29,4.29,0,0,0-1.45-.91,5.13,5.13,0,0,0-3.54,0,4.23,4.23,0,0,0-2.44,2.37A5,5,0,0,0,67.15,116.15Z"/><path class="cls-2" d="M82,110.3l3.56,5.33,3.64-5.33h2.05V122H89.63v-6.62l0-3h-.16l-3.58,5.24h-.7l-3.55-5.24h-.14l0,3V122H79.93V110.3Z"/></svg>