<svg xmlns="http://www.w3.org/2000/svg" width="100" height="130" viewBox="0 0 100 130"><defs><style>.cls-1{fill:#e40526;}.cls-2{fill:#fff;}</style></defs><title>Ресурс 2</title><g id="Слой_2" data-name="Слой 2"><g id="Слой_1-2" data-name="Слой 1"><rect class="cls-1" width="100" height="130"/><path class="cls-2" d="M15.56,82.08h1.07c1.5,0,1.66-.14,1.66-1.5V63.82c0-1.35-.17-1.5-1.66-1.5H15.56v-.25h7.56c4.4,0,7.36,1.69,7.36,4.26,0,1.61-1.61,3.58-4.46,4v.11c4,.25,6.8,3.22,6.8,6.09,0,3.53-3.75,5.87-8.55,5.87H15.56Zm8.15-.23c3.87,0,6.43-2.14,6.43-5.36,0-3.39-2.77-5.81-6.63-5.81H21.88V70.2h1.24c2.74,0,4.71-1.58,4.71-3.81s-2-3.81-5.13-3.81H20.19v0a1.87,1.87,0,0,1,.51,1.47V80.36a1.8,1.8,0,0,1-.51,1.44v.06Z"/><path class="cls-2" d="M33.28,82.11h.48c.79,0,1.24-.79,1.72-1.75L44.2,62.08h2.4v.34a4.48,4.48,0,0,0,.28,1.64l7.31,16.31c.62,1.35.73,1.75,1.83,1.75h.25v.25H50.35v-.25h2.37v-.06c-.42-.14-.73-.85-1-1.33L50,76.86H37.74l-1.66,3.5a2,2,0,0,0-.17.65c0,.65.56,1.1,1.5,1.1h1.52v.25H33.28Zm16.53-5.76L44.54,64.59a2.36,2.36,0,0,1-.25-1.13H44a3.12,3.12,0,0,1-.37,1.13L38,76.35Z"/><path class="cls-2" d="M57.12,82.11h1.1c1.5,0,1.66-.4,1.66-1.75V64.08c0-1.35-.17-1.75-1.66-1.75h-1.1v-.25h7.65v.25H64c-1.5,0-1.64.4-1.64,1.75V81.85h7.28V64.08c0-1.35-.2-1.75-1.64-1.75h-.85v-.25H74.5v.25h-.85c-1.5,0-1.64.4-1.64,1.75V81.85H79.3V64.08c0-1.35-.17-1.75-1.66-1.75h-.82v-.25h7.65v.25h-1.1c-1.47,0-1.64.4-1.64,1.75V80.36c0,1.35.17,1.75,1.64,1.75h1.1v.25H57.12Z"/><path class="cls-2" d="M17.41,110.66a15.14,15.14,0,0,0,5.22-11.21V94c0-1.89-.24-2-2.32-2h-.65v-.24H34.11V92H33.05c-1.43,0-1.59.38-1.59,1.68v17h2.65v5H33.05v-2.86c0-1.3-.19-1.68-1.62-1.68H18c-1.43,0-1.59.38-1.59,1.68v2.86H15.32v-5Zm11.75,0V92.2H23.38v6.59c0,5.38-1.24,9.49-2.7,11.86Z"/><path class="cls-2" d="M35.49,101.42c0-5.94,4.4-9.92,11-9.92s11,4,11,9.92-4.41,9.94-11,9.94S35.49,107.39,35.49,101.42Zm19.4.51c0-6.46-3-9.94-8.48-9.94s-8.32,3.13-8.32,8.94c0,6.46,3,9.94,8.54,9.94C52,110.87,54.89,107.74,54.89,101.93Z"/><path class="cls-2" d="M58.46,110.87h.49c1.51,0,1.73-.41,1.84-1.92l.78-15.59v-.57c0-.62-.19-.86-1.49-.86H58.89v-.24h4.38L71,107.17a4.32,4.32,0,0,1,.46,1.16h.14a5,5,0,0,1,.41-1.16l7.7-15.48h4.46v.24h-1c-1.46,0-1.68.41-1.68,1.19,0,.22,0,.46,0,.73l.7,15.11c.05,1.54.27,1.92,1.89,1.92h.65v.24H77v-.24h1.08c1.62,0,1.84-.41,1.84-1.05v-.46l-.59-14.24c0-.49,0-.89,0-1.19h-.19A6.71,6.71,0,0,1,78.62,95l-8,16.19-.08.19h-.08l-.08-.19L62.49,95.33a3.89,3.89,0,0,1-.32-1.14h-.11c0,.24,0,.43,0,.92l-.76,14.19c0,.24,0,.46,0,.65,0,.65.24.95,1.89.95h1.05v.24H58.46Z"/></g></g></svg>