<svg id="Capa_1" data-name="Capa 1" xmlns="http://www.w3.org/2000/svg" viewBox="0 0 263.78 200"><defs><style>.cls-1{fill:#da0945;}</style></defs><title>photo-camera-outline</title><path class="cls-1" d="M243.47,200H20.3A20.33,20.33,0,0,1,0,179.7V52.18A20.32,20.32,0,0,1,20.3,31.88H31.89V28.27A12.34,12.34,0,0,1,44.21,15.93H68.12A12.35,12.35,0,0,1,80.45,28.27v3.61h28.25l13.94-22.3A20.13,20.13,0,0,1,139.85,0l55.8,0A20.3,20.3,0,0,1,213.5,10.61L226.8,31.88h16.68a20.32,20.32,0,0,1,20.3,20.29V179.7A20.33,20.33,0,0,1,243.47,200ZM20.3,40.6A11.6,11.6,0,0,0,8.72,52.18V179.7A11.6,11.6,0,0,0,20.3,191.28H243.47a11.6,11.6,0,0,0,11.59-11.59V52.18A11.59,11.59,0,0,0,243.47,40.6h-19.1a4.36,4.36,0,0,1-3.7-2L206,15a11.7,11.7,0,0,0-10.32-6.29l-55.79,0a11.48,11.48,0,0,0-9.81,5.45L114.83,38.55a4.36,4.36,0,0,1-3.7,2h-35a4.35,4.35,0,0,1-4.36-4.36v-8a3.62,3.62,0,0,0-3.62-3.62H44.22a3.62,3.62,0,0,0-3.61,3.62v8a4.35,4.35,0,0,1-4.36,4.36H20.3ZM167.75,176.08a64.14,64.14,0,1,1,64.14-64.14A64.21,64.21,0,0,1,167.75,176.08Zm0-119.55A55.42,55.42,0,1,0,223.17,112,55.48,55.48,0,0,0,167.75,56.53ZM76.21,77.74H28.27a4.36,4.36,0,0,1,0-8.72H76.21a4.36,4.36,0,1,1,0,8.72Z"/></svg>