<svg id="Capa_1" data-name="Capa 1" xmlns="http://www.w3.org/2000/svg" viewBox="0 0 193.94 200"><defs><style>.cls-1{fill:#da0945;}</style></defs><title>picture-frame-hanged-from-a-nail</title><g id="Image"><path class="cls-1" d="M185.22,47.36h-46.7L108.34,17.67a12.92,12.92,0,0,0,1-5,12.36,12.36,0,1,0-24.7,0,12.92,12.92,0,0,0,1,5L55.42,47.36H8.72a8.84,8.84,0,0,0-8.72,9V191a8.84,8.84,0,0,0,8.72,9h176.5a8.84,8.84,0,0,0,8.72-9V56.32A8.84,8.84,0,0,0,185.22,47.36ZM91.64,24.14a11.89,11.89,0,0,0,10.65,0l22.47,22.09H69.17Zm84.87,157.94H17.43V65.28H176.51v116.8ZM39.19,164.45H154.75A4.41,4.41,0,0,0,159.1,160V87.4a4.41,4.41,0,0,0-4.36-4.47H39.19a4.41,4.41,0,0,0-4.36,4.47V160A4.41,4.41,0,0,0,39.19,164.45Zm4.36-72.57H150.39v63.61H43.56Z"/></g></svg>