<svg id="Capa_1" data-name="Capa 1" xmlns="http://www.w3.org/2000/svg" viewBox="0 0 200.06 200"><defs><style>.cls-1{fill:#da0945;}</style></defs><title>projection-screen-with-bar-chart</title><path class="cls-1" d="M96.89,18.74a3.13,3.13,0,0,1,0,6.25H6.25V137.54H193.74V25H109.37a3.13,3.13,0,1,1,0-6.25h87.49A3.13,3.13,0,0,1,200,21.87v118.8a3.13,3.13,0,0,1-3.13,3.13H3.13A3.13,3.13,0,0,1,0,140.67V21.87a3.13,3.13,0,0,1,3.13-3.13Z"/><path class="cls-1" d="M93.76,3.11a3.11,3.11,0,1,1,6.22,0V21.86a3.11,3.11,0,1,1-6.22,0Z"/><path class="cls-1" d="M93.76,153.12a3.11,3.11,0,1,1,6.22,0v31.27a3.11,3.11,0,1,1-6.22,0Z"/><path class="cls-1" d="M50.12,152.26a3.12,3.12,0,0,1,6,1.71L43.63,197.73a3.12,3.12,0,0,1-6-1.71Z"/><path class="cls-1" d="M137.62,154a3.12,3.12,0,1,1,6-1.71L156.14,196a3.12,3.12,0,1,1-6,1.71Z"/><path class="cls-1" d="M81.26,121.87a3.13,3.13,0,1,1-6.25,0V81.24H31.26v40.62a3.13,3.13,0,1,1-6.25,0V78.12A3.13,3.13,0,0,1,28.13,75h50a3.13,3.13,0,0,1,3.13,3.13v43.75Z"/><path class="cls-1" d="M181.24,121.87a3.11,3.11,0,1,1-6.22,0l0-53.13H140.63a3.13,3.13,0,0,1,0-6.25H178.1a3.11,3.11,0,0,1,3.11,3.11Z"/><path class="cls-1" d="M131.24,121.87a3.11,3.11,0,1,1-6.22,0V50H81.25V65.62a3.13,3.13,0,0,1-6.25,0V46.86a3.13,3.13,0,0,1,3.13-3.13h50a3.11,3.11,0,0,1,3.11,3.11Z"/><path class="cls-1" d="M3.18,156.3a3.13,3.13,0,1,1,0-6.25H196.93a3.13,3.13,0,0,1,0,6.25Z"/></svg>