<svg id="Capa_1" data-name="Capa 1" xmlns="http://www.w3.org/2000/svg" viewBox="0 0 262.97 200"><defs><style>.cls-1{fill:#da0945;}</style></defs><title>royal-crown-with-simplicity</title><path class="cls-1" d="M237,48.82a25.88,25.88,0,0,0-17.26,45.25L187,105.84,140.33,50.37a25.95,25.95,0,1,0-17.6-.08L76,105.84,43.25,94.07A25.94,25.94,0,1,0,19.84,100v70.4a6.1,6.1,0,0,0,.28,1.38,9.17,9.17,0,0,0-.28,2.22c0,25.28,100.22,26,111.65,26s111.64-.75,111.64-26a8.87,8.87,0,0,0-.28-2.22,5.16,5.16,0,0,0,.28-1.38V100A25.93,25.93,0,0,0,237,48.82ZM118.34,26a13.34,13.34,0,1,1,13.35,13.34A13.37,13.37,0,0,1,118.34,26ZM75.89,119.24a6.34,6.34,0,0,0,7-1.9l48.63-57.85,48.64,57.87a6.36,6.36,0,0,0,7,1.89l43.39-15.62v56.94c-27.32-12.16-90.1-12.61-99-12.61s-71.7.44-99,12.61V103.63Zm55.61,68.12c-48.69,0-79.69-5.8-92.6-10.67A25.17,25.17,0,0,1,33.33,174c4-3,17.12-7.06,39-9.92a458.73,458.73,0,0,1,59.21-3.46A458.83,458.83,0,0,1,190.72,164c21.85,2.86,34.93,6.94,39,9.92a24,24,0,0,1-5.56,2.72C211.21,181.58,180.2,187.36,131.5,187.36ZM12.66,74.79A13.34,13.34,0,1,1,26,88.14,13.36,13.36,0,0,1,12.66,74.79ZM237,88.14a13.34,13.34,0,1,1,13.35-13.35A13.37,13.37,0,0,1,237,88.14Z"/></svg>