<svg id="Слой_1" data-name="Слой 1" xmlns="http://www.w3.org/2000/svg" viewBox="0 0 200 200"><defs><style>.cls-1{fill:#da0945;}</style></defs><title>wallet</title><path class="cls-1" d="M195.76,86.37h-5.1V51.92a14.24,14.24,0,0,0-14-14.45h-3.84v-23c0-8.08-6-14.45-13.18-14.45h-.86L13.18,37.43s-.12,0-.16,0A14.36,14.36,0,0,0,0,51.92V185.55A14.24,14.24,0,0,0,14,200H176.61a14.32,14.32,0,0,0,14.45-14.45V150.2h4.69A4,4,0,0,0,200,146V90.65A4.27,4.27,0,0,0,195.76,86.37ZM160.41,8.08c2.12.41,4.24,3,4.24,6.37v23H47.22L160.41,8.08Zm22.16,177.47a6.19,6.19,0,0,1-6,6.37H14a6.19,6.19,0,0,1-6-6.37V51.92a6.19,6.19,0,0,1,6-6.37H176.16a6.19,6.19,0,0,1,6,6.37V86.37H140a31.92,31.92,0,1,0,0,63.84h42.57v35.35Zm8.9-43.43H140a23.39,23.39,0,0,1,0-46.78h51.47Z"/><path class="cls-1" d="M135.31,119.14a4.24,4.24,0,0,0,4.24,4.24h3.84a4.24,4.24,0,1,0,0-8.49h-3.8A4,4,0,0,0,135.31,119.14Z"/></svg>