<svg id="Capa_1" data-name="Capa 1" xmlns="http://www.w3.org/2000/svg" viewBox="0 0 200.58 200"><defs><style>.cls-1{fill:#da0945;}</style></defs><title>wallpaper</title><path class="cls-1" d="M111.31,54.82h.83v.83a4.67,4.67,0,1,0,9.34,0v-.83h.83a4.67,4.67,0,1,0,0-9.34h-.83v-.83a4.67,4.67,0,1,0-9.34,0v.83h-.83a4.67,4.67,0,1,0,0,9.34Z"/><path class="cls-1" d="M111.31,98.87h.83v.83a4.67,4.67,0,1,0,9.34,0v-.83h.83a4.67,4.67,0,1,0,0-9.34h-.83V88.7a4.67,4.67,0,1,0-9.34,0v.83h-.83a4.67,4.67,0,1,0,0,9.34Z"/><path class="cls-1" d="M122.32,133.58h-.83v-.83a4.67,4.67,0,0,0-9.34,0v.83h-.83a4.67,4.67,0,1,0,0,9.34h.83v.83a4.67,4.67,0,1,0,9.34,0v-.83h.83a4.67,4.67,0,1,0,0-9.34Z"/><path class="cls-1" d="M149.85,65.83h.83v.83a4.67,4.67,0,1,0,9.34,0v-.83h.83a4.67,4.67,0,1,0,0-9.34H160v-.83a4.67,4.67,0,1,0-9.34,0v.83h-.83a4.67,4.67,0,0,0,0,9.34Z"/><path class="cls-1" d="M149.85,109.89h.83v.83a4.67,4.67,0,0,0,9.34,0v-.83h.83a4.67,4.67,0,1,0,0-9.34H160v-.83a4.67,4.67,0,1,0-9.34,0v.83h-.83a4.67,4.67,0,0,0,0,9.34Z"/><path class="cls-1" d="M149.85,153.94h.83v.83a4.67,4.67,0,1,0,9.34,0v-.83h.83a4.67,4.67,0,0,0,0-9.34H160v-.83a4.67,4.67,0,1,0-9.34,0v.83h-.83a4.67,4.67,0,0,0,0,9.34Z"/><path class="cls-1" d="M44.22,73h-.83v-.83a4.67,4.67,0,0,0-9.34,0V73h-.83a4.67,4.67,0,1,0,0,9.34H34v.83a4.67,4.67,0,1,0,9.34,0V82.3h.83a4.67,4.67,0,0,0,0-9.34Z"/><path class="cls-1" d="M44.22,31.62h-.83v-.83a4.67,4.67,0,0,0-9.34,0v.83h-.83a4.67,4.67,0,0,0,0,9.34H34v.83a4.67,4.67,0,1,0,9.34,0V41h.83a4.67,4.67,0,1,0,0-9.34Z"/><path class="cls-1" d="M44.22,114.28h-.83v-.83a4.67,4.67,0,1,0-9.34,0v.83h-.83a4.67,4.67,0,0,0,0,9.34H34v.83a4.67,4.67,0,1,0,9.34,0v-.83h.83a4.67,4.67,0,0,0,0-9.34Z"/><path class="cls-1" d="M44.22,155.61h-.83v-.83a4.67,4.67,0,0,0-9.34,0v.83h-.83a4.67,4.67,0,0,0,0,9.34H34v.83a4.67,4.67,0,1,0,9.34,0V165h.83a4.67,4.67,0,0,0,0-9.34Z"/><path class="cls-1" d="M193.91,15.94h-116C73.22,6.4,58.6,0,39.72,0,16.7,0,0,9.51,0,22.61V176.8C0,190,17.07,200,39.72,200c18.64,0,33.49-6.76,38.17-16.52h116a6.68,6.68,0,0,0,6.68-6.68V22.61A6.68,6.68,0,0,0,193.91,15.94ZM39.72,186.65c-16.36,0-26.37-6.37-26.37-9.85V22.61c0-3.14,9.31-9.26,26.37-9.26s26.37,6.12,26.37,9.26V176.8C66.08,180.28,56.07,186.65,39.72,186.65Zm147.52-16.52H79.43V29.29h107.8Z"/></svg>