<svg id="Capa_1" data-name="Capa 1" xmlns="http://www.w3.org/2000/svg" viewBox="0 0 166.82 200"><defs><style>.cls-1{fill:#da0945;}</style></defs><title>worker</title><path class="cls-1" d="M40.9,69.3h70.81v9.3a26.29,26.29,0,0,1-26.26,26.26h-.62A26.16,26.16,0,0,1,59.29,84.74a4.63,4.63,0,0,0-9,2.15,35.38,35.38,0,0,0,34.53,27.21h.62A35.55,35.55,0,0,0,121,78.6V69.3h8.42a4.63,4.63,0,0,0,0-9.25h-3.53V48.38a40.39,40.39,0,0,0-21.23-35.52V4.63a4.63,4.63,0,0,0-9.25,0V9.26A40.27,40.27,0,0,0,85.5,8h-.72a40.28,40.28,0,0,0-9.87,1.23V4.63a4.63,4.63,0,1,0-9.25,0v8.23A40.38,40.38,0,0,0,44.43,48.38V60H40.9a4.63,4.63,0,0,0,0,9.25ZM53.68,48.38a31.06,31.06,0,0,1,12-24.5v1.81a4.63,4.63,0,1,0,9.25,0v-6.8a31,31,0,0,1,9.87-1.61h.72a31,31,0,0,1,9.87,1.61v6.8a4.63,4.63,0,0,0,9.25,0V23.88a31.05,31.05,0,0,1,12,24.5V60H53.68Z"/><path class="cls-1" d="M131,121.87H35.8A35.84,35.84,0,0,0,0,157.67v37.71A4.63,4.63,0,0,0,4.63,200H162.19a4.63,4.63,0,0,0,4.63-4.63V157.67A35.84,35.84,0,0,0,131,121.87ZM9.25,157.67A26.58,26.58,0,0,1,35.8,131.12H50.17V165a4.63,4.63,0,0,0,4.63,4.63H112a4.63,4.63,0,0,0,4.63-4.63V143a4.63,4.63,0,1,0-9.25,0v17.39h-48V131.12h65.33v59.62H42.07V152.84a4.63,4.63,0,1,0-9.25,0v37.91H9.25Zm148.32,33.08H134V131.29a26.58,26.58,0,0,1,23.56,26.38Z"/><path class="cls-1" d="M54.8,183.75H112a4.63,4.63,0,0,0,0-9.25H54.8a4.63,4.63,0,0,0,0,9.25Z"/></svg>