<svg id="Capa_1" data-name="Capa 1" xmlns="http://www.w3.org/2000/svg" viewBox="0 0 200 200"><defs><style>.cls-1{fill:#da0945;}</style></defs><title>help-button</title><path class="cls-1" d="M97.61,141.87A7.2,7.2,0,0,0,90.43,149v4.78a7.18,7.18,0,0,0,14.35,0V149A7.2,7.2,0,0,0,97.61,141.87Z"/><path class="cls-1" d="M100,200A100,100,0,1,0,0,100,100.11,100.11,0,0,0,100,200Zm0-185.65A85.65,85.65,0,1,1,14.35,100,85.71,85.71,0,0,1,100,14.35Z"/><path class="cls-1" d="M68.9,82.06h0a7,7,0,0,0,7.18-6.94,29.25,29.25,0,0,1,3-11.36C82.66,56.58,89,53,98.33,53c8.73,0,15.19,2.39,18.78,7.06,3,3.83,3.83,9.09,2.39,14.83C117.7,81.94,111.6,88,105.74,94,98.56,101.44,91,109,91,119.14a7.18,7.18,0,0,0,14.35,0c0-4.31,5.14-9.57,10.65-15.07,6.82-6.94,14.59-14.83,17.34-25.6,2.63-9.93.84-19.86-4.9-27.15-4.43-5.74-13.28-12.68-30-12.68-18.78,0-27.75,10-32.06,18.66a44.07,44.07,0,0,0-4.55,17.82A7,7,0,0,0,68.9,82.06Z"/></svg>