<svg id="Слой_1" data-name="Слой 1" xmlns="http://www.w3.org/2000/svg" viewBox="0 0 200 200"><defs><style>.cls-1{fill:#da0945;}</style></defs><title>calendar</title><path class="cls-1" d="M200,34.31a18.85,18.85,0,0,0-18.75-18.9H161.41V6.3a6.25,6.25,0,1,0-12.5,0v9.1H50.81V6.3a6.25,6.25,0,1,0-12.5,0v9.1H18.75A18.85,18.85,0,0,0,0,34.31V63.08a5.7,5.7,0,0,0,.2,1A5.7,5.7,0,0,0,0,65v0s0,0,0,0v116A18.85,18.85,0,0,0,18.75,200h162.5A18.85,18.85,0,0,0,200,181.1V65.1s0,0,0,0v0a5.8,5.8,0,0,0-.2-1,5.7,5.7,0,0,0,.2-1ZM187.5,181.1a6.28,6.28,0,0,1-6.25,6.3H18.75a6.28,6.28,0,0,1-6.25-6.3V71.33h175Zm0-122.37H12.5V34.3A6.28,6.28,0,0,1,18.75,28H38.31v9.1a6.25,6.25,0,1,0,12.5,0V28h98.11v9.1a6.25,6.25,0,1,0,12.5,0V28h19.83a6.28,6.28,0,0,1,6.25,6.3Z"/><ellipse class="cls-1" cx="66.19" cy="105.71" rx="6.25" ry="6.3"/><ellipse class="cls-1" cx="96.41" cy="105.71" rx="6.25" ry="6.3"/><ellipse class="cls-1" cx="130.19" cy="105.71" rx="6.25" ry="6.3"/><ellipse class="cls-1" cx="164.68" cy="105.71" rx="6.25" ry="6.3"/><ellipse class="cls-1" cx="35.32" cy="127.52" rx="6.25" ry="6.3"/><ellipse class="cls-1" cx="66.19" cy="127.52" rx="6.25" ry="6.3"/><ellipse class="cls-1" cx="96.41" cy="127.52" rx="6.25" ry="6.3"/><ellipse class="cls-1" cx="130.19" cy="127.52" rx="6.25" ry="6.3"/><ellipse class="cls-1" cx="164.68" cy="127.52" rx="6.25" ry="6.3"/><ellipse class="cls-1" cx="35.32" cy="149.23" rx="6.25" ry="6.3"/><ellipse class="cls-1" cx="66.19" cy="149.23" rx="6.25" ry="6.3"/><ellipse class="cls-1" cx="96.41" cy="149.23" rx="6.25" ry="6.3"/><ellipse class="cls-1" cx="130.19" cy="149.23" rx="6.25" ry="6.3"/><ellipse class="cls-1" cx="164.68" cy="149.23" rx="6.25" ry="6.3"/><ellipse class="cls-1" cx="35.32" cy="171.04" rx="6.25" ry="6.3"/><ellipse class="cls-1" cx="66.19" cy="171.04" rx="6.25" ry="6.3"/><ellipse class="cls-1" cx="96.41" cy="171.04" rx="6.25" ry="6.3"/></svg>