<svg id="Слой_1" data-name="Слой 1" xmlns="http://www.w3.org/2000/svg" viewBox="0 0 200 200"><defs><style>.cls-1{fill:#da0945;}</style></defs><title>map</title><path class="cls-1" d="M200,132.22V67.73a3.19,3.19,0,0,0-2.28-3.06l-29.84-8.85a44.45,44.45,0,0,0,3.75-16.46,39.36,39.36,0,0,0-78.72,0,44.45,44.45,0,0,0,3.75,16.46L67.73,64.41,4.1,45.53A3.19,3.19,0,0,0,0,48.59V177.66a3.19,3.19,0,0,0,2.28,3.06l64.49,19.13h.08l.36.08.1,0,.41,0a3.18,3.18,0,0,0,.42,0l.1,0,.37-.08h.06L131,181.37a3.17,3.17,0,0,0,2.59,0l62.34,18.5a3.19,3.19,0,0,0,4.1-3.06V132.22Zm-6.38-62.1V128l-58.16-17.26v-9.08c4.16-4.29,20.51-21.7,29.73-40l28.42,8.43ZM132.27,6.38a33,33,0,0,1,33,33c0,5.18-1.73,11-4.43,16.8a3.19,3.19,0,0,0-.33.69c-7.69,16.23-22.57,32.87-28.22,38.89-5.65-6-20.52-22.63-28.21-38.86a3.19,3.19,0,0,0-.35-.76c-2.69-5.83-4.41-11.6-4.41-16.77A33,33,0,0,1,132.27,6.38Zm-3.19,95.28v9.08L70.92,128V70.12l28.42-8.43C108.57,80,124.92,97.38,129.08,101.66ZM6.38,117.4l22.05,6.54a3.19,3.19,0,1,0,1.82-6.12L6.38,110.74V52.86L64.54,70.12V128l-22-6.54a3.19,3.19,0,0,0-1.82,6.12l23.87,7.08v57.88L6.38,175.28V117.4Zm129.08,57.88V152.17a3.19,3.19,0,1,0-6.38,0v23.11L70.92,192.53V134.65l58.16-17.26v22a3.19,3.19,0,0,0,6.38,0v-22l58.16,17.26v57.88Z"/><path class="cls-1" d="M132.27,61.7a22.34,22.34,0,1,0-22.34-22.34A22.37,22.37,0,0,0,132.27,61.7Zm0-38.3a16,16,0,1,1-16,16A16,16,0,0,1,132.27,23.4Z"/></svg>