<svg id="Capa_1" data-name="Capa 1" xmlns="http://www.w3.org/2000/svg" viewBox="0 0 258.62 200"><defs><style>.cls-1{fill:#da0945;}</style></defs><title>measuring-tape-outline</title><path class="cls-1" d="M93.1,51.72A48.28,48.28,0,1,0,141.38,100,48.34,48.34,0,0,0,93.1,51.72Zm0,82.76A34.48,34.48,0,1,1,127.59,100,34.52,34.52,0,0,1,93.1,134.48Z"/><path class="cls-1" d="M251.72,200a6.89,6.89,0,0,0,6.9-6.9V171.55a6.89,6.89,0,0,0-6.9-6.9H186.21V93.1A92.5,92.5,0,0,0,169,39.32V17.47a6.89,6.89,0,0,0-6.9-6.9H136A93,93,0,0,0,0,93.1v100A6.89,6.89,0,0,0,6.9,200H179.31a6.89,6.89,0,0,0,6.9-6.9V178.45h58.62V193.1A6.89,6.89,0,0,0,251.72,200Zm-79.31-13.79H13.79V93.1a79.31,79.31,0,0,1,158.62,0Z"/></svg>