<svg id="Capa_1" data-name="Capa 1" xmlns="http://www.w3.org/2000/svg" viewBox="0 0 234.16 200"><defs><style>.cls-1{fill:#da0945;}</style></defs><title>operator-avatar</title><path class="cls-1" d="M87.83,74.56a11.56,11.56,0,0,0-10,5.76,5.59,5.59,0,1,1-9.68-5.6,22.7,22.7,0,0,1,39.31,0,5.59,5.59,0,1,1-9.68,5.6A11.56,11.56,0,0,0,87.83,74.56Zm29.4,59.28a11.56,11.56,0,0,1-10-5.76,5.59,5.59,0,0,0-9.68,5.6,22.7,22.7,0,0,0,39.31,0,5.59,5.59,0,0,0-9.68-5.6A11.56,11.56,0,0,1,117.24,133.83ZM234.16,79.35v25.49c0,9.51-7.48,17.52-17,17.52H206.85a95.08,95.08,0,0,1-16,29.92,94.1,94.1,0,0,1-46.51,31.42,18,18,0,0,1-18,16.3H108.12a18,18,0,1,1,0-36h18.23a18.14,18.14,0,0,1,15.45,8.84A82.64,82.64,0,0,0,145.9,16.36a94.76,94.76,0,0,1-30,24.36A94.14,94.14,0,0,1,73,51.08c-1.73,0-3.49,0-5.23-.14a5.59,5.59,0,0,1,.61-11.16c1.54.08,3.1.13,4.62.13A81.89,81.89,0,0,0,134.09,13a82.69,82.69,0,0,0-16.19-1.73h-.2l-.13,0h-.34c-45.6,0-82.45,37.15-82.45,82.75v22.57A6,6,0,0,1,29,122.36H17.3A17.55,17.55,0,0,1,0,104.84V79.35A17.23,17.23,0,0,1,12,62.93a5.59,5.59,0,1,1,3.43,10.64,6.16,6.16,0,0,0-4.26,5.78v25.49a6.36,6.36,0,0,0,6.12,6.34h6.3V93.93C23.6,42.17,65.47,0,117.24,0h1.46s0,0,.07,0,.06,0,.09,0h1.42l.07,0s.1-.05.14-.05h.08a108.61,108.61,0,0,1,25.08,4.41c.11,0,.23.17.34.21a94.13,94.13,0,0,1,65.14,89.44,97.19,97.19,0,0,1-1.51,17.11h7.57c3.34,0,5.81-3,5.81-6.34V79.35a6.05,6.05,0,0,0-4.13-5.78,5.6,5.6,0,0,1,3.46-10.64A17.09,17.09,0,0,1,234.16,79.35ZM133.21,182.06a5.86,5.86,0,0,0-.13-1.25c0-.05,0-.16,0-.21a7,7,0,0,0-6.69-5.45H108.12a6.83,6.83,0,1,0,0,13.66h18.23A6.78,6.78,0,0,0,133.21,182.06ZM129,82.36a5.59,5.59,0,0,0,7.64-2,11.52,11.52,0,0,1,20,0,5.59,5.59,0,0,0,9.68-5.6,22.7,22.7,0,0,0-39.31,0A5.59,5.59,0,0,0,129,82.36Z"/></svg>