<svg id="Capa_1" data-name="Capa 1" xmlns="http://www.w3.org/2000/svg" viewBox="0 0 228.34 200"><defs><style>.cls-1{fill:#da0945;}</style></defs><title>paintbrush-outline</title><g id="_1" data-name="1"><path class="cls-1" d="M222.15,6.11a21.33,21.33,0,0,0-29.89,0l-122.58,121c-15-.34-35.79,5-44.76,34.36C18.05,177,0,176.25,0,176.25c37.48,41.59,81.66,18,91.75,7.8,8.86-9,10.14-20,9.19-28.75L222.15,35.62A20.68,20.68,0,0,0,222.15,6.11ZM81.78,174.21c-7,6.51-38.4,21-56.87,7,0,0,6.43-5,11.3-15.08,11.62-30.88,40.59-26.31,40.59-26.31l10,9.84C86.86,149.71,94.2,162.7,81.78,174.21Zm14.95-34.44-10-9.84,14.95-14.76,10,9.84Zm115.45-114-90.54,89.39-10-9.84L202.22,16a7.1,7.1,0,0,1,10,0A6.88,6.88,0,0,1,212.18,25.78Z"/></g></svg>