<svg id="Capa_1" data-name="Capa 1" xmlns="http://www.w3.org/2000/svg" viewBox="0 0 211.11 200"><defs><style>.cls-1{fill:#da0945;}</style></defs><title>percent</title><path class="cls-1" d="M155.46,1.31a12,12,0,0,0-16.17,5.27L49.84,182.52a12,12,0,1,0,21.44,10.9L160.73,17.48A12,12,0,0,0,155.46,1.31Z"/><path class="cls-1" d="M91.23,59.25a45.62,45.62,0,1,0-45.62,45.62A45.67,45.67,0,0,0,91.23,59.25ZM45.62,80.81A21.56,21.56,0,1,1,67.18,59.25,21.59,21.59,0,0,1,45.62,80.81Z"/><path class="cls-1" d="M165.49,95.14a45.62,45.62,0,1,0,45.62,45.62A45.67,45.67,0,0,0,165.49,95.14Zm0,67.18a21.56,21.56,0,1,1,21.56-21.56A21.59,21.59,0,0,1,165.49,162.31Z"/></svg>